<?xml version="1.0" encoding="iso-8859-1"?>
<!-- Generator: Adobe Illustrator 19.0.0, SVG Export Plug-In . SVG Version: 6.00 Build 0)  -->
<svg version="1.1" id="Capa_1" xmlns="http://www.w3.org/2000/svg" xmlns:xlink="http://www.w3.org/1999/xlink" x="0px" y="0px"
	 viewBox="0 0 512 512" style="enable-background:new 0 0 512 512;" xml:space="preserve">
<rect x="32.009" y="151.486" style="fill:#FFFFFF;" width="447.987" height="350.51"/>
<path style="fill:#FEA02C;" d="M32.006,84.005V9.992h447.987v74.013C479.993,84.005,32.006,84.005,32.006,84.005z"/>
<path style="fill:#2E9DE3;" d="M80.005,84.005v37.492c0,22.812-18.493,41.306-41.306,41.306l0,0
	c-21.382,0-35.236-22.568-25.557-41.635l18.864-37.163H80.005z"/>
<path style="fill:#EF3C3C;" d="M168.002,84.005v37.492c0,22.812-18.493,41.306-41.306,41.306h-5.386
	c-22.812,0-41.306-18.493-41.306-41.306V84.005H168.002z"/>
<path style="fill:#2E9DE3;" d="M255.999,84.005v37.492c0,22.812-18.493,41.306-41.306,41.306h-5.386
	c-22.812,0-41.306-18.493-41.306-41.306V84.005H255.999z"/>
<path style="fill:#EF3C3C;" d="M343.997,84.005v37.492c0,22.812-18.493,41.306-41.306,41.306h-5.386
	c-22.812,0-41.306-18.493-41.306-41.306V84.005H343.997z"/>
<path style="fill:#2E9DE3;" d="M431.994,84.005v37.492c0,22.812-18.493,41.306-41.306,41.306h-5.386
	c-22.812,0-41.306-18.493-41.306-41.306V84.005H431.994z"/>
<path style="fill:#EF3C3C;" d="M479.993,84.005l18.864,37.163c9.679,19.066-4.175,41.635-25.557,41.635l0,0
	c-22.812,0-41.306-18.493-41.306-41.306V84.005H479.993z"/>
<path style="fill:#FFCDAC;" d="M423.105,396.793L381.194,240.38l-37.691-21.16c-9.236-5.186-20.234-6.222-30.277-2.854
	l-18.732,6.283c-11.376,3.816-23.719,13.132-30.917,23.172l-5.854,0.271l-29.708-18.039c-8.537-5.184-18.952-6.251-28.363-2.906
	l-71.647,25.463L91.867,397.353l50.922,13.893l1.184-0.061l-0.478,0.828c-5.523,9.566-2.245,21.797,7.321,27.319
	c9.566,5.523,21.797,2.245,27.32-7.32c-5.523,9.566-2.245,21.797,7.32,27.319c9.566,5.523,21.797,2.245,27.319-7.321
	c-5.523,9.566-2.245,21.797,7.321,27.32c9.566,5.523,21.797,2.245,27.32-7.321c-5.523,9.566-2.245,21.797,7.321,27.32
	c9.566,5.523,21.797,2.245,27.319-7.321c0,0,1.061-0.991,2.908-2.718l8.146,4.68c9.551,5.487,21.74,2.207,27.248-7.332l0.073-0.126
	c5.051-8.748,2.716-19.716-5.053-25.74c0.111-0.104,0.222-0.209,0.333-0.313c9.07,3.632,19.663,0.171,24.693-8.542
	c2.982-5.165,3.386-11.105,1.626-16.348c7.232-6.904,11.871-11.438,11.098-10.989L423.105,396.793z"/>
<polygon style="fill:#EF3C3C;" points="10.007,381.891 87.278,402.596 134.9,224.871 10.007,191.747 "/>
<polygon style="fill:#2E9DE3;" points="501.992,381.891 424.66,402.596 377.038,224.871 501.992,191.759 "/>
<path style="fill:#FFCDAC;" d="M351.985,425.208c0.388-0.193,0.766-0.407,1.141-0.625l-0.828,0.329L351.985,425.208z"/>
<path d="M60.075,359.477c1.86-1.859,2.93-4.439,2.93-7.069c0-2.641-1.07-5.21-2.93-7.07c-1.86-1.87-4.44-2.93-7.07-2.93
	c-2.63,0-5.21,1.06-7.07,2.93c-1.86,1.86-2.93,4.43-2.93,7.07c0,2.63,1.07,5.21,2.93,7.069c1.86,1.86,4.44,2.931,7.07,2.931
	C55.635,362.407,58.215,361.337,60.075,359.477z"/>
<path d="M499.406,372.231l-67.676,18.12l-42.439-158.383l115.263-30.543c5.338-1.414,8.52-6.889,7.105-12.228
	c-1.416-5.339-6.889-8.521-12.228-7.104l-9.438,2.501v-15.542c6.603-3.15,12.262-8.178,16.257-14.687
	c7.086-11.544,7.657-25.645,1.525-37.725l-17.781-35.03V28.007c0-15.439-12.561-27.999-27.999-27.999H50.006
	c-15.439,0-27.999,12.561-27.999,27.999v53.605l-17.782,35.03c-6.131,12.079-5.561,26.181,1.525,37.725
	c3.995,6.509,9.654,11.537,16.257,14.687v15.531l-9.437-2.503c-5.337-1.414-10.813,1.764-12.229,7.103
	c-1.416,5.338,1.764,10.813,7.103,12.229l115.204,30.554l-4.322,16.131c-0.003,0.012-0.006,0.024-0.01,0.036L80.208,390.349
	l-67.613-18.117c-5.336-1.432-10.818,1.736-12.248,7.071c-1.43,5.334,1.736,10.817,7.071,12.247l14.588,3.909v106.535
	c0,5.522,4.477,10,10,10h447.987c5.523,0,10-4.478,10-10V395.455l14.586-3.905c5.335-1.429,8.502-6.911,7.073-12.246
	S504.739,370.805,499.406,372.231z M373.029,405.92c-0.076-1.599-0.275-3.187-0.602-4.748c7.027-2.298,12.885-7.04,16.634-13.534
	c8.264-14.313,3.342-32.681-10.971-40.944l-41.086-23.721c-4.782-2.762-10.899-1.123-13.66,3.66
	c-2.762,4.783-1.123,10.898,3.66,13.66l41.086,23.721c4.763,2.75,6.4,8.862,3.625,13.67c-1.332,2.308-3.483,3.957-6.056,4.646
	c-2.572,0.69-5.261,0.338-7.569-0.996l-41.086-23.72c-4.783-2.76-10.899-1.123-13.66,3.66c-2.762,4.783-1.123,10.899,3.66,13.66
	l41.086,23.72c4.763,2.75,6.401,8.862,3.694,13.552c-0.015,0.024-0.055,0.094-0.069,0.118c-0.771,1.335-1.821,2.441-3.063,3.277
	l-0.046,0.018c-0.68,0.27-1.31,0.61-1.894,1.002c-0.343,0.134-0.693,0.254-1.054,0.35c-2.572,0.691-5.26,0.336-7.568-0.996
	l-41.086-23.721c-4.782-2.761-10.899-1.124-13.66,3.66c-2.762,4.783-1.123,10.898,3.66,13.66l41.086,23.721
	c4.763,2.75,6.4,8.862,3.651,13.625c-1.334,2.312-3.49,3.963-6.069,4.65c-2.578,0.688-5.269,0.329-7.577-1.011l-26.341-15.299
	c-0.003-0.001-0.005-0.002-0.008-0.004c-0.005-0.003-0.009-0.006-0.014-0.009c0,0,0,0-0.001,0
	c-6.649-3.839-14.171-4.831-21.151-3.363c-2.219-6.779-6.839-12.798-13.488-16.637h-0.001c-6.649-3.839-14.171-4.83-21.151-3.363
	c-2.219-6.779-6.839-12.798-13.488-16.637l0,0c-6.65-3.839-14.172-4.831-21.152-3.364c-2.22-6.779-6.839-12.797-13.488-16.635l0,0
	c-6.94-4.008-15.025-5.071-22.764-2.997c-7.741,2.074-14.21,7.039-18.215,13.979l-7.859,13.612l-37.841-10.324l35.167-131.245
	l66.696-23.703c6.607-2.348,13.833-1.606,19.825,2.032l26.21,15.915l-20.274,32.702c-8.032,12.955-6.071,29.487,4.769,40.205
	c6.302,6.23,14.566,9.344,22.831,9.344c8.298-0.001,16.597-3.14,22.903-9.414l50.454-50.188c3.916-3.896,3.933-10.227,0.038-14.143
	c-3.896-3.916-10.227-3.932-14.142-0.037l-50.454,50.188c-4.836,4.813-12.718,4.823-17.568,0.028
	c-4.164-4.118-4.917-10.469-1.833-15.445l27.424-44.236c5.642-9.1,14.339-15.986,24.49-19.391l18.732-6.282
	c7.351-2.467,15.443-1.703,22.202,2.092l34.017,19.098l38.517,143.747L373.029,405.92z M264.195,491.993
	c-1.552-0.083-3.076-0.523-4.462-1.323c-2.313-1.336-3.967-3.492-4.659-6.071c-0.691-2.58-0.336-5.275,0.999-7.589l12-20.783
	c1.851-3.205,5.218-4.998,8.678-4.998c1.692,0,3.407,0.43,4.976,1.333l0.017,0.01c4.767,2.761,6.406,8.883,3.651,13.655l-12,20.783
	c-1.336,2.313-3.492,3.969-6.072,4.659c-0.645,0.173-1.297,0.281-1.948,0.324L264.195,491.993L264.195,491.993z M198.042,451.67
	c-2.579,0.692-5.274,0.337-7.588-0.999c-4.775-2.757-6.417-8.885-3.66-13.66l12-20.783c1.851-3.205,5.218-4.999,8.678-4.999
	c1.695,0,3.413,0.432,4.983,1.338c4.774,2.758,6.417,8.886,3.66,13.661l-12,20.783C202.779,449.325,200.622,450.98,198.042,451.67z
	 M163.403,431.671c-2.58,0.693-5.275,0.336-7.589-0.999c-2.313-1.336-3.967-3.492-4.659-6.071c-0.691-2.58-0.336-5.275,0.999-7.589
	l12-20.784c1.335-2.313,3.492-3.968,6.072-4.659c0.861-0.23,1.735-0.345,2.604-0.345c1.732,0,3.443,0.454,4.984,1.344
	c4.774,2.758,6.417,8.886,3.66,13.661l-12,20.783C168.139,429.325,165.982,430.981,163.403,431.671z M221.434,457.011l12-20.783
	c1.851-3.205,5.218-4.999,8.678-4.999c1.695,0,3.413,0.432,4.983,1.338c4.774,2.758,6.417,8.886,3.66,13.661l-12,20.783
	c-1.336,2.313-3.492,3.969-6.072,4.659c-2.581,0.692-5.275,0.336-7.588-0.999c-2.313-1.336-3.968-3.492-4.659-6.072
	C219.746,462.019,220.099,459.324,221.434,457.011z M236.235,491.367c0.069,0.21,0.145,0.417,0.218,0.626h-5.514
	C232.705,491.941,234.476,491.737,236.235,491.367z M302.714,476.227c1.739-3.013,2.888-6.206,3.495-9.446l1.931,1.121
	c4.744,2.755,6.372,8.861,3.615,13.637l-0.058,0.102c-2.743,4.753-8.848,6.396-13.607,3.661l-0.462-0.265L302.714,476.227z
	 M489.205,143.904c-3.472,5.656-9.269,8.899-15.905,8.899c-17.262,0-31.306-14.044-31.306-31.306V94.005h31.861l16.087,31.689
	C492.945,131.612,492.677,138.249,489.205,143.904z M90.004,94.005h67.998v27.492c0,17.262-14.044,31.306-31.306,31.306h-5.386
	c-17.262,0-31.306-14.044-31.306-31.306V94.005z M178.002,94.005H246v27.492c0,17.262-14.044,31.306-31.306,31.306h-5.386
	c-17.262,0-31.306-14.044-31.306-31.306L178.002,94.005L178.002,94.005z M265.999,94.005h67.998v27.492
	c0,17.262-14.044,31.306-31.306,31.306h-5.386c-17.262,0-31.306-14.044-31.306-31.306V94.005z M353.997,94.005h67.998v27.492
	c0,17.262-14.044,31.306-31.306,31.306h-5.386c-17.263,0-31.306-14.044-31.306-31.306V94.005z M42.006,28.007c0-4.411,3.589-8,8-8
	h411.988c4.411,0,8,3.589,8,8v9h-62.877c-5.523,0-10,4.478-10,10s4.477,10,10,10h62.877v17H42.006L42.006,28.007L42.006,28.007z
	 M22.058,125.695l16.087-31.689h31.861v27.492c0,17.262-14.044,31.306-31.306,31.306c-6.636,0-12.433-3.243-15.905-8.899
	C19.323,138.249,19.054,131.612,22.058,125.695z M42.006,189.888v-17.202c15.566-0.996,29.263-8.957,37.999-20.799
	c9.351,12.676,24.381,20.917,41.306,20.917h5.386c16.925,0,31.956-8.242,41.306-20.917c9.351,12.676,24.381,20.917,41.306,20.917
	h5.386c16.925,0,31.956-8.242,41.306-20.917c9.351,12.676,24.381,20.917,41.306,20.917h5.386c16.924,0,31.956-8.242,41.306-20.917
	c9.351,12.676,24.381,20.917,41.306,20.917h5.386c16.924,0,31.956-8.242,41.306-20.917c8.736,11.843,22.433,19.803,37.999,20.799
	v17.209l-95.517,25.311c-2.568,0.681-4.76,2.354-6.092,4.654c-0.274,0.474-0.497,0.97-0.689,1.475l-19.297-10.835
	c-11.676-6.555-25.655-7.873-38.352-3.614l-18.732,6.282c-12.518,4.198-23.485,12.096-31.46,22.519l-26.649-16.182
	c-11.155-6.772-24.604-8.153-36.901-3.782l-53.713,19.089l1.971-7.355c0.688-2.565,0.326-5.3-1.005-7.599
	c-1.331-2.299-3.522-3.974-6.09-4.655L42.006,189.888z M42.006,472.015h49.64c5.523,0,10-4.478,10-10c0-5.522-4.477-10-10-10h-49.64
	v-51.199l42.685,11.438c0.852,0.229,1.722,0.341,2.588,0.341c1.74,0,3.467-0.454,5-1.34c1.164-0.672,2.167-1.566,2.964-2.616
	l35.781,9.762c-0.455,3.759-0.195,7.608,0.815,11.376c2.074,7.74,7.038,14.21,13.977,18.215c4.623,2.669,9.753,4.032,14.952,4.032
	c2.067,0,4.143-0.224,6.204-0.659c2.221,6.775,6.839,12.79,13.485,16.627c4.623,2.669,9.753,4.032,14.952,4.032
	c2.062,0,4.133-0.223,6.188-0.655c2.3,7.033,7.044,12.896,13.5,16.622c4.357,2.516,9.167,3.855,14.059,4.003H42.006V472.015z
	 M469.993,491.993H328.794c0.077-0.128,0.161-0.248,0.236-0.378l0.058-0.102c3.828-6.629,4.819-14.136,3.36-21.105
	c7.03-2.296,12.888-7.035,16.615-13.49c3.831-6.635,4.823-14.14,3.365-21.106c1.82-0.595,3.561-1.351,5.206-2.26l60.016-23.833
	c1.846,1.813,4.354,2.88,7.003,2.88c0.856,0,1.727-0.111,2.593-0.343l42.749-11.446L469.993,491.993L469.993,491.993z"/>
<path d="M451.864,345.338c-1.86,1.86-2.93,4.43-2.93,7.07c0,2.63,1.07,5.199,2.93,7.069c1.86,1.86,4.44,2.931,7.07,2.931
	c2.63,0,5.21-1.07,7.07-2.931c1.86-1.87,2.93-4.439,2.93-7.069c0-2.641-1.07-5.21-2.93-7.07c-1.86-1.87-4.44-2.93-7.07-2.93
	C456.304,342.408,453.724,343.468,451.864,345.338z"/>
<path d="M127.843,452.014c-2.63,0-5.21,1.07-7.07,2.931c-1.86,1.859-2.93,4.439-2.93,7.069c0,2.63,1.07,5.21,2.93,7.07
	c1.86,1.86,4.44,2.93,7.07,2.93c2.64,0,5.21-1.069,7.07-2.93c1.86-1.86,2.93-4.44,2.93-7.07c0-2.63-1.07-5.21-2.93-7.069
	C133.053,453.084,130.473,452.014,127.843,452.014z"/>
<path d="M370.916,57.006c2.63,0,5.21-1.07,7.07-2.931c1.86-1.859,2.93-4.439,2.93-7.069c0-2.63-1.07-5.21-2.93-7.07
	c-1.86-1.86-4.44-2.93-7.07-2.93c-2.63,0-5.21,1.069-7.07,2.93c-1.86,1.86-2.93,4.44-2.93,7.07c0,2.63,1.07,5.21,2.93,7.069
	C365.706,55.936,368.286,57.006,370.916,57.006z"/>
<g>
</g>
<g>
</g>
<g>
</g>
<g>
</g>
<g>
</g>
<g>
</g>
<g>
</g>
<g>
</g>
<g>
</g>
<g>
</g>
<g>
</g>
<g>
</g>
<g>
</g>
<g>
</g>
<g>
</g>
</svg>
