<?xml version="1.0" encoding="iso-8859-1"?>
<!-- Generator: Adobe Illustrator 19.0.0, SVG Export Plug-In . SVG Version: 6.00 Build 0)  -->
<svg version="1.1" id="Capa_1" xmlns="http://www.w3.org/2000/svg" xmlns:xlink="http://www.w3.org/1999/xlink" x="0px" y="0px"
	 viewBox="0 0 511.999 511.999" style="enable-background:new 0 0 511.999 511.999;" xml:space="preserve">
<polygon style="fill:#FEA02C;" points="181.088,437.086 246.002,501.999 282.527,465.474 230.425,413.371 "/>
<path style="fill:#EF3C3C;" d="M408.61,188.122c23.396-23.396,23.396-61.33,0-84.726c-23.396-23.396-61.33-23.396-84.726,0
	L408.61,188.122z"/>
<path style="fill:#FEA02C;" d="M192.919,423.729l-56.597,56.597c-28.898,28.898-75.75,28.898-104.649,0l0,0
	c-28.898-28.898-28.898-75.75,0-104.649l56.597-56.597L192.919,423.729z"/>
<g>
	<polygon style="fill:#C9F3FF;" points="502.001,281.518 192.919,423.729 88.27,319.081 230.481,9.998 	"/>
	<circle style="fill:#C9F3FF;" cx="332.179" cy="249.991" r="25.745"/>
	<circle style="fill:#C9F3FF;" cx="198.404" cy="243.441" r="25.745"/>
</g>
<path d="M422.235,187.611c20.478-27.361,18.301-66.429-6.555-91.286c-13.205-13.204-30.76-20.476-49.434-20.476
	c-15.297,0-29.841,4.888-41.861,13.912L237.553,2.927c-2.314-2.313-5.614-3.345-8.833-2.772c-3.22,0.576-5.955,2.691-7.323,5.664
	L79.935,313.274l-55.332,55.332C8.738,384.472,0,405.565,0,428.001c0,22.437,8.738,43.531,24.602,59.395
	c15.865,15.864,36.959,24.603,59.395,24.603s43.53-8.738,59.395-24.603l36.932-36.932l58.606,58.606
	c1.875,1.875,4.419,2.929,7.071,2.929s5.196-1.054,7.071-2.929l36.525-36.525c3.905-3.905,3.905-10.237,0-14.143l-46.674-46.674
	l263.256-121.125c2.972-1.368,5.087-4.103,5.664-7.323c0.576-3.221-0.459-6.52-2.772-8.833L422.235,187.611z M366.246,95.849
	c13.332,0,25.865,5.191,35.292,14.619c17.039,17.039,19.16,43.435,6.36,62.802l-69.169-69.169
	C346.822,98.732,356.313,95.849,366.246,95.849z M83.998,492c-17.094,0-33.166-6.657-45.253-18.745
	C26.657,461.167,20,445.097,20,428.001c0-17.094,6.657-33.165,18.745-45.252l49.525-49.525l90.506,90.506l-22.257,22.257
	l-36.963-36.962c-3.905-3.904-10.237-3.904-14.142,0c-3.905,3.905-3.905,10.237,0,14.143l36.962,36.962l-13.127,13.127
	C117.164,485.343,101.092,492,83.998,492z M268.385,465.474l-22.383,22.383l-51.535-51.535l4.257-4.257l24.829-11.424
	L268.385,465.474z M195.066,411.734l-94.8-94.8L211.422,75.345l45.701,45.701c1.953,1.952,4.512,2.929,7.071,2.929
	c2.559,0,5.119-0.977,7.071-2.929c3.905-3.905,3.906-10.237,0-14.143l-50.93-50.931l13.229-28.752l251.214,251.214L195.066,411.734z
	"/>
<path d="M255.531,186.192c-1.481-5.32-6.992-8.437-12.315-6.952c-5.32,1.48-8.433,6.994-6.952,12.315l37.753,135.638
	c1.231,4.424,5.25,7.321,9.628,7.321c0.887,0,1.79-0.119,2.687-0.369c5.32-1.48,8.433-6.994,6.952-12.315L255.531,186.192z"/>
<path d="M306.899,275.263c6.752,6.751,15.728,10.47,25.276,10.47c9.548,0,18.524-3.719,25.275-10.47
	c6.751-6.752,10.47-15.728,10.47-25.275c0-9.549-3.718-18.524-10.47-25.276c-6.751-6.751-15.727-10.47-25.275-10.47
	c-9.548,0-18.524,3.719-25.276,10.47c-6.751,6.752-10.47,15.728-10.47,25.276C296.43,259.535,300.147,268.511,306.899,275.263z
	 M321.041,238.853c2.974-2.975,6.928-4.612,11.134-4.612c4.206,0,8.16,1.638,11.134,4.612c6.14,6.14,6.14,16.128,0,22.268
	c-2.974,2.975-6.928,4.612-11.134,4.612c-4.206,0-8.16-1.638-11.134-4.612C314.902,254.981,314.902,244.992,321.041,238.853z"/>
<path d="M198.409,207.696c-9.548,0-18.524,3.719-25.276,10.47c-6.751,6.752-10.47,15.728-10.47,25.275
	c0,9.549,3.718,18.524,10.47,25.275c6.752,6.751,15.728,10.47,25.276,10.47c9.548,0,18.524-3.719,25.275-10.47
	c6.752-6.751,10.47-15.727,10.47-25.275s-3.718-18.523-10.47-25.275C216.932,211.415,207.956,207.696,198.409,207.696z
	 M209.541,254.575c-2.974,2.975-6.928,4.612-11.134,4.612c-4.206,0-8.16-1.638-11.135-4.612c-2.974-2.974-4.612-6.928-4.612-11.134
	s1.638-8.16,4.612-11.134c2.974-2.975,6.928-4.612,11.134-4.612c4.206,0,8.16,1.638,11.134,4.612
	c2.975,2.974,4.612,6.928,4.612,11.134S212.516,251.602,209.541,254.575z"/>
<path d="M447.993,74.012c2.559,0,5.119-0.977,7.071-2.929l53.998-53.998c3.905-3.905,3.905-10.237,0-14.143
	c-3.905-3.904-10.237-3.904-14.143,0L440.922,56.94c-3.905,3.905-3.905,10.237,0,14.143
	C442.876,73.035,445.435,74.012,447.993,74.012z"/>
<path d="M501.992,135.76h-42.999c-5.523,0-10,4.478-10,10s4.477,10,10,10h42.999c5.523,0,10-4.478,10-10
	S507.515,135.76,501.992,135.76z"/>
<path d="M366.33,63.012c5.523,0,10-4.478,10-10V10.014c0-5.522-4.477-10-10-10s-10,4.478-10,10v42.999
	C356.331,58.534,360.807,63.012,366.33,63.012z"/>
<path d="M86.016,379.632c-2.63,0-5.21,1.06-7.07,2.93c-1.86,1.86-2.93,4.431-2.93,7.07c0,2.63,1.07,5.21,2.93,7.07
	c1.86,1.859,4.44,2.93,7.07,2.93c2.63,0,5.21-1.07,7.07-2.93s2.93-4.44,2.93-7.07c0-2.64-1.07-5.21-2.93-7.07
	C91.225,380.691,88.655,379.632,86.016,379.632z"/>
<path d="M290.659,150.439c2.63,0,5.21-1.07,7.07-2.93c1.86-1.86,2.93-4.44,2.93-7.07c0-2.63-1.07-5.21-2.93-7.07
	c-1.86-1.859-4.44-2.93-7.07-2.93s-5.21,1.07-7.07,2.93c-1.86,1.87-2.93,4.44-2.93,7.07c0,2.63,1.07,5.21,2.93,7.07
	C285.449,149.368,288.029,150.439,290.659,150.439z"/>
<g>
</g>
<g>
</g>
<g>
</g>
<g>
</g>
<g>
</g>
<g>
</g>
<g>
</g>
<g>
</g>
<g>
</g>
<g>
</g>
<g>
</g>
<g>
</g>
<g>
</g>
<g>
</g>
<g>
</g>
</svg>
