<?xml version="1.0" encoding="iso-8859-1"?>
<!-- Generator: Adobe Illustrator 19.0.0, SVG Export Plug-In . SVG Version: 6.00 Build 0)  -->
<svg version="1.1" id="Capa_1" xmlns="http://www.w3.org/2000/svg" xmlns:xlink="http://www.w3.org/1999/xlink" x="0px" y="0px"
	 viewBox="0 0 512.001 512.001" style="enable-background:new 0 0 512.001 512.001;" xml:space="preserve">
<g>
	<path style="fill:#FFB954;" d="M46,13h245c19.882,0,36,16.118,36,36l0,0c0,19.882-16.118,36-36,36H46c-19.882,0-36-16.118-36-36
		l0,0C10,29.118,26.118,13,46,13z"/>
	<path style="fill:#FFB954;" d="M99.503,157h245c19.882,0,36,16.118,36,36l0,0c0,19.882-16.118,36-36,36h-245
		c-19.882,0-36-16.118-36-36l0,0C63.503,173.118,79.62,157,99.503,157z"/>
</g>
<path style="fill:#FEA02C;" d="M99.503,229h245c19.882,0,36,16.118,36,36l0,0c0,19.882-16.118,36-36,36h-245
	c-19.882,0-36-16.118-36-36l0,0C63.503,245.118,79.62,229,99.503,229z"/>
<path style="fill:#FFB954;" d="M99.503,301h245c19.882,0,36,16.118,36,36l0,0c0,19.882-16.118,36-36,36h-245
	c-19.882,0-36-16.118-36-36l0,0C63.503,317.118,79.62,301,99.503,301z"/>
<g>
	<path style="fill:#FEA02C;" d="M99.503,373h245c19.882,0,36,16.118,36,36l0,0c0,19.882-16.118,36-36,36h-245
		c-19.882,0-36-16.118-36-36l0,0C63.503,389.118,79.62,373,99.503,373z"/>
	<path style="fill:#FEA02C;" d="M164,85h245c19.882,0,36,16.118,36,36l0,0c0,19.882-16.118,36-36,36H164c-19.882,0-36-16.118-36-36
		l0,0C128,101.118,144.118,85,164,85z"/>
</g>
<circle style="fill:#FFB954;" cx="342" cy="339" r="160"/>
<circle style="fill:#FEDA9B;" cx="342" cy="339" r="120"/>
<path d="M341.954,290.275c12.131,0,22,8.542,22,19.042c0,5.522,4.478,10,10,10s10-4.478,10-10c0-18.325-13.654-33.733-32-37.915
	v-5.201c0-5.522-4.478-10-10-10s-10,4.478-10,10v5.201c-18.346,4.182-32,19.59-32,37.915c0,21.527,18.841,39.041,42,39.041
	c12.131,0,22,8.542,22,19.042s-9.869,19.042-22,19.042s-22-8.542-22-19.042c0-5.522-4.478-10-10-10s-10,4.478-10,10
	c0,18.325,13.654,33.733,32,37.915v4.32c0,5.522,4.478,10,10,10s10-4.478,10-10v-4.32c18.346-4.182,32-19.59,32-37.915
	c0-21.528-18.841-39.042-42-39.042c-12.131,0-22-8.542-22-19.041C319.954,298.817,329.823,290.275,341.954,290.275z"/>
<path d="M451.482,268.876c-13.063-20.355-31.467-36.643-53.222-47.101c-4.979-2.394-10.954-0.298-13.346,4.68
	c-2.393,4.978-0.298,10.952,4.68,13.345C427.505,258.024,452,296.963,452,339.001c0,17.988-4.434,35.827-12.821,51.591
	c-2.594,4.875-0.745,10.931,4.131,13.525c1.496,0.796,3.104,1.174,4.688,1.174c3.578,0,7.039-1.926,8.837-5.305
	C466.756,381.342,472,360.253,472,339.001C472,314.041,464.905,289.792,451.482,268.876z"/>
<path d="M357,229.001l0.579,0.001c0.016,0,0.031,0,0.048,0c5.501,0,9.973-4.446,9.999-9.953c0.025-5.523-4.431-10.021-9.953-10.047
	L357,209.001c-5.522,0-10,4.477-10,10S351.478,229.001,357,229.001z"/>
<path d="M294.407,438.202c-37.91-18.225-62.405-57.164-62.405-99.201c0-17.988,4.434-35.827,12.821-51.591
	c2.594-4.875,0.745-10.931-4.131-13.525c-4.874-2.594-10.932-0.745-13.525,4.131c-9.921,18.645-15.165,39.733-15.165,60.985
	c0,24.96,7.095,49.208,20.518,70.125c13.063,20.355,31.467,36.643,53.222,47.102c1.397,0.672,2.873,0.989,4.326,0.989
	c3.724,0,7.298-2.089,9.02-5.669C301.479,446.57,299.385,440.595,294.407,438.202z"/>
<path d="M327.002,449.001l-0.579-0.002c-5.548-0.01-10.02,4.429-10.045,9.953c-0.026,5.523,4.432,10.021,9.954,10.047l0.67,0.002
	c5.522,0,10-4.478,10-10C337.002,453.479,332.524,449.001,327.002,449.001z"/>
<path d="M387.409,175.168c-1.217-2.9-2.708-5.633-4.443-8.168H409c25.364,0,46-20.636,46-46s-20.636-46-46-46h-80.08
	c5.091-7.402,8.08-16.357,8.08-26c0-25.364-20.636-46-46-46H46C20.636,3,0,23.636,0,49s20.636,46,46,46h80.08
	c-5.091,7.402-8.08,16.357-8.08,26s2.988,18.598,8.08,26H100c-25.364,0-46,20.636-46,46c0,14.567,6.814,27.566,17.415,36
	C60.814,237.434,54,250.433,54,265s6.814,27.566,17.415,36C60.814,309.434,54,322.433,54,337c0,14.567,6.814,27.566,17.415,36
	C60.814,381.434,54,394.433,54,409c0,25.364,20.636,46,46,46h117.85c31.046,33.207,75.212,54.001,124.151,54.001
	c93.738,0,170-76.262,170-170C512.001,260.984,459.171,195.083,387.409,175.168z M20,49c0-14.336,11.663-26,26-26h245
	c14.337,0,26,11.664,26,26s-11.663,26-26,26H46C31.663,75,20,63.336,20,49z M138,121c0-14.336,11.663-26,26-26h245
	c14.337,0,26,11.664,26,26s-11.663,26-26,26h-64H164C149.663,147,138,135.336,138,121z M74,193c0-14.336,11.664-26,26-26h245
	c4.028,0,7.885,0.936,11.345,2.612c-4.73-0.397-9.512-0.611-14.344-0.611c-46.945,0-89.505,19.129-120.299,49.999H100
	C85.664,219,74,207.336,74,193z M74,265c0-14.336,11.663-26,26-26h104.615c-11.352,15.553-20.129,33.095-25.703,52H100
	C85.663,291,74,279.337,74,265z M74,337c0-14.337,11.663-26,26-26h74.32c-1.517,9.113-2.319,18.464-2.319,28.001
	c0,8.146,0.589,16.156,1.702,23.999H100C85.663,363,74,351.337,74,337z M100,435c-14.337,0-26-11.663-26-26
	c0-14.337,11.663-26,26-26h77.786c5.046,18.813,13.243,36.346,23.993,52H100z M342.001,489.001c-82.71,0-150-67.29-150-150
	s67.29-150,150-150s150,67.29,150,150S424.711,489.001,342.001,489.001z"/>
<g>
</g>
<g>
</g>
<g>
</g>
<g>
</g>
<g>
</g>
<g>
</g>
<g>
</g>
<g>
</g>
<g>
</g>
<g>
</g>
<g>
</g>
<g>
</g>
<g>
</g>
<g>
</g>
<g>
</g>
</svg>
